<svg width="18" height="21" viewBox="0 0 18 21" fill="none" xmlns="http://www.w3.org/2000/svg">
<path d="M1.94232 20.0997C1.55017 20.0997 1.21175 19.9573 0.92705 19.6727C0.64235 19.388 0.5 19.0495 0.5 18.6574V4.1767C0.5 3.78455 0.64235 3.44613 0.92705 3.16143C1.21175 2.87673 1.55017 2.73438 1.94232 2.73438H3.78848V0.984375H5.04808V2.73438H12.9904V0.984375H14.2211V2.73438H16.0576C16.4498 2.73438 16.7882 2.87673 17.0729 3.16143C17.3576 3.44613 17.5 3.78455 17.5 4.1767V18.6574C17.5 19.0495 17.3576 19.388 17.0729 19.6727C16.7882 19.9573 16.4498 20.0997 16.0576 20.0997H1.94232ZM1.94232 18.9651H16.0576C16.1346 18.9651 16.2051 18.9331 16.2692 18.8689C16.3333 18.8048 16.3654 18.7343 16.3654 18.6574V8.72475H1.6346V18.6574C1.6346 18.7343 1.66665 18.8048 1.73075 18.8689C1.79487 18.9331 1.86539 18.9651 1.94232 18.9651ZM1.6346 7.59018H16.3654V4.1767C16.3654 4.09977 16.3333 4.02924 16.2692 3.96513C16.2051 3.90103 16.1346 3.86898 16.0576 3.86898H1.94232C1.86539 3.86898 1.79487 3.90103 1.73075 3.96513C1.66665 4.02924 1.6346 4.09977 1.6346 4.1767V7.59018ZM8.99998 12.6767C8.75511 12.6767 8.54646 12.5904 8.37403 12.418C8.20159 12.2456 8.11538 12.0369 8.11538 11.7921C8.11538 11.5472 8.20159 11.3385 8.37403 11.1661C8.54646 10.9937 8.75511 10.9075 8.99998 10.9075C9.24484 10.9075 9.45349 10.9937 9.62593 11.1661C9.79836 11.3385 9.88457 11.5472 9.88457 11.7921C9.88457 12.0369 9.79836 12.2456 9.62593 12.418C9.45349 12.5904 9.24484 12.6767 8.99998 12.6767ZM4.99998 12.6767C4.75511 12.6767 4.54646 12.5904 4.37403 12.418C4.20159 12.2456 4.11538 12.0369 4.11538 11.7921C4.11538 11.5472 4.20159 11.3385 4.37403 11.1661C4.54646 10.9937 4.75511 10.9075 4.99998 10.9075C5.24484 10.9075 5.45349 10.9937 5.62593 11.1661C5.79836 11.3385 5.88458 11.5472 5.88458 11.7921C5.88458 12.0369 5.79836 12.2456 5.62593 12.418C5.45349 12.5904 5.24484 12.6767 4.99998 12.6767ZM13 12.6767C12.7551 12.6767 12.5465 12.5904 12.374 12.418C12.2016 12.2456 12.1154 12.0369 12.1154 11.7921C12.1154 11.5472 12.2016 11.3385 12.374 11.1661C12.5465 10.9937 12.7551 10.9075 13 10.9075C13.2448 10.9075 13.4535 10.9937 13.6259 11.1661C13.7984 11.3385 13.8846 11.5472 13.8846 11.7921C13.8846 12.0369 13.7984 12.2456 13.6259 12.418C13.4535 12.5904 13.2448 12.6767 13 12.6767ZM8.99998 16.5997C8.75511 16.5997 8.54646 16.5135 8.37403 16.3411C8.20159 16.1686 8.11538 15.96 8.11538 15.7151C8.11538 15.4703 8.20159 15.2616 8.37403 15.0892C8.54646 14.9167 8.75511 14.8305 8.99998 14.8305C9.24484 14.8305 9.45349 14.9167 9.62593 15.0892C9.79836 15.2616 9.88457 15.4703 9.88457 15.7151C9.88457 15.96 9.79836 16.1686 9.62593 16.3411C9.45349 16.5135 9.24484 16.5997 8.99998 16.5997ZM4.99998 16.5997C4.75511 16.5997 4.54646 16.5135 4.37403 16.3411C4.20159 16.1686 4.11538 15.96 4.11538 15.7151C4.11538 15.4703 4.20159 15.2616 4.37403 15.0892C4.54646 14.9167 4.75511 14.8305 4.99998 14.8305C5.24484 14.8305 5.45349 14.9167 5.62593 15.0892C5.79836 15.2616 5.88458 15.4703 5.88458 15.7151C5.88458 15.96 5.79836 16.1686 5.62593 16.3411C5.45349 16.5135 5.24484 16.5997 4.99998 16.5997ZM13 16.5997C12.7551 16.5997 12.5465 16.5135 12.374 16.3411C12.2016 16.1686 12.1154 15.96 12.1154 15.7151C12.1154 15.4703 12.2016 15.2616 12.374 15.0892C12.5465 14.9167 12.7551 14.8305 13 14.8305C13.2448 14.8305 13.4535 14.9167 13.6259 15.0892C13.7984 15.2616 13.8846 15.4703 13.8846 15.7151C13.8846 15.96 13.7984 16.1686 13.6259 16.3411C13.4535 16.5135 13.2448 16.5997 13 16.5997Z" fill="#FDE12D"/>
</svg>