<svg width="49" height="48" viewBox="0 0 49 48" fill="none" xmlns="http://www.w3.org/2000/svg">
<circle cx="24.7441" cy="24" r="24" fill="#F0F1F2"/>
<path d="M25.7445 13.834L25.0374 13.1269L25.7445 12.4198L26.4516 13.1269L25.7445 13.834ZM26.7445 24.334C26.7445 24.8863 26.2968 25.334 25.7445 25.334C25.1922 25.334 24.7445 24.8863 24.7445 24.334L26.7445 24.334ZM19.204 18.9602L25.0374 13.1269L26.4516 14.5411L20.6182 20.3744L19.204 18.9602ZM26.4516 13.1269L32.2849 18.9602L30.8707 20.3744L25.0374 14.5411L26.4516 13.1269ZM26.7445 13.834L26.7445 24.334L24.7445 24.334L24.7445 13.834L26.7445 13.834Z" fill="#333333"/>
<path d="M17.5771 26.666L17.5771 27.8327C17.5771 29.1213 18.6218 30.166 19.9105 30.166L31.5771 30.166C32.8658 30.166 33.9105 29.1213 33.9105 27.8327V26.666" stroke="#333333" stroke-width="2"/>
</svg>
